<svg width="24" height="24" viewBox="0 0 24 24" fill="none" xmlns="http://www.w3.org/2000/svg">
<path fill-rule="evenodd" clip-rule="evenodd" d="M18 3H6C5.44772 3 5 3.44772 5 4V10.75H19V4C19 3.44772 18.5523 3 18 3ZM18.9685 12.25H5.0315C5.14252 12.6813 5.53404 13 6 13H18C18.466 13 18.8575 12.6813 18.9685 12.25ZM6 1C4.34315 1 3 2.34315 3 4V12C3 13.6569 4.34315 15 6 15H11.25V17.0945C10.1138 17.387 9.23805 18.3283 9.04148 19.5H2V21H9.17071C9.58254 22.1652 10.6938 23 12 23C13.3062 23 14.4175 22.1652 14.8293 21H22V19.5H14.9585C14.762 18.3283 13.8862 17.387 12.75 17.0945V15H18C19.6569 15 21 13.6569 21 12V4C21 2.34315 19.6569 1 18 1H6ZM12 21.5C12.8284 21.5 13.5 20.8284 13.5 20C13.5 19.1716 12.8284 18.5 12 18.5C11.1716 18.5 10.5 19.1716 10.5 20C10.5 20.8284 11.1716 21.5 12 21.5Z" fill="#9A9A9A"/>
</svg>
