<svg xmlns="http://www.w3.org/2000/svg" xmlns:xlink="http://www.w3.org/1999/xlink" width="45px" height="45px" viewBox="0 0 45 45" version="1.1">
    <!-- Generator: Sketch 48.2 (47327) - http://www.bohemiancoding.com/sketch -->
    <title>arc/icons/pagebuilder</title>
    <desc>Created with Sketch.</desc>
    <defs>
        <polygon id="path-1" points="0 90 90 90 90 0 6.09866009e-20 0"/>
    </defs>
    <g id="Desktop-HD-Copy-2" stroke="none" stroke-width="1" fill="none" fill-rule="evenodd" transform="translate(-120.000000, -188.000000)">
        <g id="arc/icons/pagebuilder" transform="translate(96.000000, 164.000000)">
            <mask id="mask-2" fill="white">
                <use xlink:href="#path-1"/>
            </mask>
            <g id="Clip-2"/>
            <path d="M66.2746875,52.34325 C66.2746875,51.759375 66.062625,51.2728125 65.6401875,50.883 C65.2160625,50.494875 64.746375,50.298 64.228875,50.298 L60.6255,50.298 C60.1029375,50.298 59.632125,50.494875 59.211375,50.883 C58.78725,51.2728125 58.5785625,51.759375 58.5785625,52.34325 L58.5785625,64.22775 C58.5785625,64.7480625 58.78725,65.2205625 59.211375,65.639625 C59.632125,66.062625 60.1029375,66.2724375 60.6255,66.2724375 L64.228875,66.2724375 C64.746375,66.2724375 65.2160625,66.062625 65.6401875,65.639625 C66.062625,65.2205625 66.2746875,64.7480625 66.2746875,64.22775 L66.2746875,52.34325 Z M69,64.22775 C69,65.5265625 68.5269375,66.64875 67.5886875,67.588125 C66.6470625,68.5291875 65.524875,69 64.228875,69 L60.6255,69 C59.325,69 58.2045,68.5291875 57.2645625,67.588125 C56.32125,66.64875 55.8538125,65.5265625 55.8538125,64.22775 L55.8538125,52.34325 C55.8538125,51.0455625 56.32125,49.9273125 57.2645625,48.9834375 C58.2045,48.0440625 59.325,47.5726875 60.6255,47.5726875 L64.228875,47.5726875 C65.524875,47.5726875 66.6470625,48.0440625 67.5886875,48.9834375 C68.5269375,49.9273125 69,51.0455625 69,52.34325 L69,64.22775 Z M29.551875,35.104875 C29.094,35.104875 28.8684375,34.8765 28.8684375,34.422 L28.8684375,33.156375 C28.8684375,32.181 29.1125625,31.338375 29.6019375,30.622875 C30.0879375,29.9101875 30.7528125,29.5524375 31.5976875,29.5524375 L36.1719375,29.5524375 C36.6298125,29.5524375 36.855375,29.781375 36.855375,30.2330625 C36.855375,30.6886875 36.6298125,30.9159375 36.1719375,30.9159375 L31.5976875,30.9159375 C30.687,30.9159375 30.2330625,31.66125 30.2330625,33.156375 L30.2330625,34.422 C30.2330625,34.8765 30.0046875,35.104875 29.551875,35.104875 Z M29.452875,37.246875 C29.3235,37.3785 29.162625,37.4420625 28.9674375,37.4420625 C28.7716875,37.4420625 28.608,37.3785 28.47975,37.246875 C28.34925,37.1175 28.284,36.9538125 28.284,36.7591875 C28.284,36.565125 28.34925,36.4036875 28.47975,36.2754375 C28.80375,35.948625 29.128875,35.948625 29.452875,36.2754375 C29.5816875,36.4036875 29.6503125,36.565125 29.6503125,36.7591875 C29.6503125,36.9538125 29.5816875,37.1175 29.452875,37.246875 Z M50.982,52.34325 C50.982,51.759375 50.78625,51.2728125 50.3953125,50.883 C50.0060625,50.494875 49.518375,50.298 48.9339375,50.298 L28.7716875,50.298 C28.2508125,50.298 27.7816875,50.494875 27.3609375,50.883 C26.9345625,51.2728125 26.72475,51.759375 26.72475,52.34325 L26.72475,64.22775 C26.72475,64.7480625 26.9345625,65.2205625 27.3609375,65.639625 C27.7816875,66.062625 28.2508125,66.2724375 28.7716875,66.2724375 L48.9339375,66.2724375 C49.518375,66.2724375 50.0060625,66.062625 50.3953125,65.639625 C50.78625,65.2205625 50.982,64.7480625 50.982,64.22775 L50.982,52.34325 Z M65.59125,28.7728125 C65.59125,28.253625 65.3791875,27.783375 64.9584375,27.360375 C64.5343125,26.939625 64.0651875,26.7264375 63.546,26.7264375 L28.7716875,26.7264375 C28.2508125,26.7264375 27.7816875,26.939625 27.3609375,27.360375 C26.9345625,27.783375 26.72475,28.253625 26.72475,28.7728125 L26.72475,40.655625 C26.72475,41.24175 26.9345625,41.726625 27.3609375,42.117 C27.7816875,42.5056875 28.2508125,42.700875 28.7716875,42.700875 L63.546,42.700875 C64.0651875,42.700875 64.5343125,42.5056875 64.9584375,42.117 C65.3791875,41.726625 65.59125,41.24175 65.59125,40.655625 L65.59125,28.7728125 Z M53.8063125,64.22775 C53.8063125,65.5265625 53.3338125,66.64875 52.3921875,67.588125 C51.4516875,68.5291875 50.2985625,69 48.9339375,69 L28.7716875,69 C27.4711875,69 26.350125,68.5291875 25.4113125,67.588125 C24.469125,66.64875 24,65.5265625 24,64.22775 L24,52.34325 C24,51.0455625 24.469125,49.9273125 25.4113125,48.9834375 C26.350125,48.0440625 27.4711875,47.5726875 28.7716875,47.5726875 L48.9339375,47.5726875 C50.2985625,47.5726875 51.4516875,48.0440625 52.3921875,48.9834375 C53.3338125,49.9273125 53.8063125,51.0455625 53.8063125,52.34325 L53.8063125,64.22775 Z M68.31825,40.655625 C68.31825,41.9566875 67.84575,43.0749375 66.9075,44.017125 C65.963625,44.95875 64.8436875,45.427875 63.546,45.427875 L28.7716875,45.427875 C27.4711875,45.427875 26.350125,44.95875 25.4113125,44.017125 C24.469125,43.0749375 24,41.9566875 24,40.655625 L24,28.7728125 C24,27.4745625 24.469125,26.3551875 25.4113125,25.411875 C26.350125,24.4725 27.4711875,24 28.7716875,24 L63.546,24 C64.8436875,24 65.963625,24.4725 66.9075,25.411875 C67.84575,26.3551875 68.31825,27.4745625 68.31825,28.7728125 L68.31825,40.655625 Z" id="Fill-1" fill="#808080" mask="url(#mask-2)"/>
        </g>
    </g>
</svg>
